M48
; DRILL file {KiCad 9.0.4} date 2025-08-30T15:32:04-0400
; FORMAT={-:-/ absolute / inch / decimal}
; #@! TF.CreationDate,2025-08-30T15:32:04-04:00
; #@! TF.GenerationSoftware,Kicad,Pcbnew,9.0.4
; #@! TF.FileFunction,Plated,1,2,PTH
FMAT,2
INCH
; #@! TA.AperFunction,Plated,PTH,ViaDrill
T1C0.0118
; #@! TA.AperFunction,Plated,PTH,ViaDrill
T2C0.0138
; #@! TA.AperFunction,Plated,PTH,ComponentDrill
T3C0.0197
; #@! TA.AperFunction,Plated,PTH,ComponentDrill
T4C0.0394
; #@! TA.AperFunction,Plated,PTH,ComponentDrill
T5C0.0571
%
G90
G05
T1
X4.9365Y-4.824
X4.9565Y-4.804
X4.9765Y-4.784
X4.9965Y-4.764
X5.2465Y-2.834
X5.2465Y-2.984
X5.2465Y-3.134
X5.2465Y-3.284
X5.2465Y-3.434
X5.2465Y-3.584
X5.2465Y-3.734
X5.2465Y-3.884
X5.2715Y-2.434
X5.4215Y-2.459
X5.4215Y-2.834
X5.4215Y-2.984
X5.4215Y-3.134
X5.4215Y-3.284
X5.4215Y-3.434
X5.4215Y-3.584
X5.4215Y-3.734
X5.4215Y-3.884
X5.5715Y-2.484
X5.5715Y-2.834
X5.5715Y-2.984
X5.5715Y-3.134
X5.5715Y-3.284
X5.5715Y-3.434
X5.5715Y-3.584
X5.5715Y-3.734
X5.5715Y-3.884
X5.7215Y-2.509
X5.7215Y-2.834
X5.7215Y-2.984
X5.7215Y-3.134
X5.7215Y-3.284
X5.7215Y-3.434
X5.7215Y-3.584
X5.7215Y-3.734
X5.7215Y-3.884
X5.8465Y-2.534
X5.8565Y-4.644
X5.8715Y-2.834
X5.8715Y-2.984
X5.8715Y-3.134
X5.8715Y-3.284
X5.8715Y-3.434
X5.8715Y-3.584
X5.8715Y-3.734
X5.8715Y-3.884
X5.8765Y-4.624
X5.8965Y-4.604
X5.9165Y-4.584
X5.9252Y-5.2756
X5.9765Y-5.444
X5.9965Y-2.559
X6.0215Y-2.834
X6.0215Y-2.984
X6.0215Y-3.134
X6.0215Y-3.284
X6.0215Y-3.434
X6.0215Y-3.584
X6.0215Y-3.734
X6.0215Y-3.884
X6.0265Y-5.094
X6.063Y-5.2165
X6.1465Y-2.584
X6.1715Y-2.834
X6.1715Y-2.984
X6.1715Y-3.134
X6.1715Y-3.284
X6.1715Y-3.434
X6.1715Y-3.584
X6.1715Y-3.734
X6.1715Y-3.884
X6.1765Y-5.264
X6.1765Y-5.404
X6.1965Y-5.284
X6.2008Y-5.324
X6.2165Y-5.304
X6.2165Y-5.344
X6.2165Y-5.384
X6.2965Y-2.609
X6.3215Y-2.834
X6.3215Y-2.984
X6.3215Y-3.134
X6.3215Y-3.284
X6.3215Y-3.434
X6.3215Y-3.584
X6.3215Y-3.734
X6.3215Y-3.884
X6.4465Y-5.409
X6.4563Y-5.6242
X6.4715Y-5.409
X6.4965Y-5.094
X6.4965Y-5.409
X6.5165Y-5.074
X6.5365Y-5.094
X6.5465Y-5.714
X6.5565Y-5.114
X6.6865Y-5.164
X6.6865Y-5.264
X6.7065Y-5.284
T2
X5.7465Y-5.659
T3
X6.6535Y-5.6496
X6.6535Y-5.6988
X6.6535Y-5.748
X6.6535Y-5.7972
T4
X6.3878Y-4.7768
X6.4878Y-4.7768
X6.7717Y-5.4283
X6.7717Y-5.5283
X6.7717Y-5.6283
X6.7717Y-5.7283
T5
X5.1952Y-5.5296
X5.752Y-4.9728
M30
