%TF.GenerationSoftware,KiCad,Pcbnew,9.0.4*%
%TF.CreationDate,2025-08-30T15:32:04-04:00*%
%TF.ProjectId,business_card_pcb,62757369-6e65-4737-935f-636172645f70,rev?*%
%TF.SameCoordinates,Original*%
%TF.FileFunction,Soldermask,Top*%
%TF.FilePolarity,Negative*%
%FSLAX46Y46*%
G04 Gerber Fmt 4.6, Leading zero omitted, Abs format (unit mm)*
G04 Created by KiCad (PCBNEW 9.0.4) date 2025-08-30 15:32:04*
%MOMM*%
%LPD*%
G01*
G04 APERTURE LIST*
G04 Aperture macros list*
%AMRoundRect*
0 Rectangle with rounded corners*
0 $1 Rounding radius*
0 $2 $3 $4 $5 $6 $7 $8 $9 X,Y pos of 4 corners*
0 Add a 4 corners polygon primitive as box body*
4,1,4,$2,$3,$4,$5,$6,$7,$8,$9,$2,$3,0*
0 Add four circle primitives for the rounded corners*
1,1,$1+$1,$2,$3*
1,1,$1+$1,$4,$5*
1,1,$1+$1,$6,$7*
1,1,$1+$1,$8,$9*
0 Add four rect primitives between the rounded corners*
20,1,$1+$1,$2,$3,$4,$5,0*
20,1,$1+$1,$4,$5,$6,$7,0*
20,1,$1+$1,$6,$7,$8,$9,0*
20,1,$1+$1,$8,$9,$2,$3,0*%
G04 Aperture macros list end*
%ADD10RoundRect,0.101600X0.565685X0.000000X0.000000X0.565685X-0.565685X0.000000X0.000000X-0.565685X0*%
%ADD11RoundRect,0.101600X0.500000X0.550000X-0.500000X0.550000X-0.500000X-0.550000X0.500000X-0.550000X0*%
%ADD12RoundRect,0.101600X-0.550000X-0.500000X0.550000X-0.500000X0.550000X0.500000X-0.550000X0.500000X0*%
%ADD13R,1.700000X1.700000*%
%ADD14C,1.700000*%
%ADD15RoundRect,0.101600X0.495300X-0.406400X0.495300X0.406400X-0.495300X0.406400X-0.495300X-0.406400X0*%
%ADD16RoundRect,0.101600X0.355600X-0.749300X0.355600X0.749300X-0.355600X0.749300X-0.355600X-0.749300X0*%
%ADD17RoundRect,0.101600X-0.035355X0.742462X-0.742462X0.035355X0.035355X-0.742462X0.742462X-0.035355X0*%
%ADD18R,2.000000X2.000000*%
%ADD19O,2.219200X1.211200*%
%ADD20RoundRect,0.101600X-0.500000X-0.550000X0.500000X-0.550000X0.500000X0.550000X-0.500000X0.550000X0*%
%ADD21RoundRect,0.736600X-0.000010X-0.000010X0.000010X-0.000010X0.000010X0.000010X-0.000010X0.000010X0*%
%ADD22RoundRect,0.101600X0.140000X-0.779400X0.140000X0.779400X-0.140000X0.779400X-0.140000X-0.779400X0*%
%ADD23RoundRect,0.101600X0.779400X0.140000X-0.779400X0.140000X-0.779400X-0.140000X0.779400X-0.140000X0*%
%ADD24C,2.379000*%
G04 APERTURE END LIST*
D10*
%TO.C,LED29*%
X150936430Y-81613270D03*
X149875770Y-82673930D03*
%TD*%
%TO.C,LED37*%
X150936430Y-85423270D03*
X149875770Y-86483930D03*
%TD*%
%TO.C,LED64*%
X162366430Y-96853270D03*
X161305770Y-97913930D03*
%TD*%
%TO.C,LED48*%
X162366430Y-89233270D03*
X161305770Y-90293930D03*
%TD*%
%TO.C,LED24*%
X162366430Y-77803270D03*
X161305770Y-78863930D03*
%TD*%
%TO.C,LED21*%
X150936430Y-77803270D03*
X149875770Y-78863930D03*
%TD*%
%TO.C,LED43*%
X143316430Y-89233270D03*
X142255770Y-90293930D03*
%TD*%
%TO.C,LED20*%
X147126430Y-77803270D03*
X146065770Y-78863930D03*
%TD*%
%TO.C,LED22*%
X154746430Y-77803270D03*
X153685770Y-78863930D03*
%TD*%
%TO.C,LED27*%
X143316430Y-81613270D03*
X142255770Y-82673930D03*
%TD*%
D11*
%TO.C,R2*%
X154431100Y-136245600D03*
X152731100Y-136245600D03*
%TD*%
D10*
%TO.C,LED5*%
X150936430Y-70183270D03*
X149875770Y-71243930D03*
%TD*%
D12*
%TO.C,C9*%
X152731100Y-133959600D03*
X154431100Y-133959600D03*
%TD*%
D10*
%TO.C,LED17*%
X135696430Y-77803270D03*
X134635770Y-78863930D03*
%TD*%
%TO.C,LED8*%
X162366430Y-70183270D03*
X161305770Y-71243930D03*
%TD*%
%TO.C,LED34*%
X139506430Y-85423270D03*
X138445770Y-86483930D03*
%TD*%
%TO.C,LED63*%
X158556430Y-96853270D03*
X157495770Y-97913930D03*
%TD*%
D13*
%TO.C,J1*%
X172000000Y-137880000D03*
D14*
X172000000Y-140420000D03*
X172000000Y-142960000D03*
X172000000Y-145500000D03*
%TD*%
D10*
%TO.C,LED18*%
X139506430Y-77803270D03*
X138445770Y-78863930D03*
%TD*%
%TO.C,LED26*%
X139506430Y-81613270D03*
X138445770Y-82673930D03*
%TD*%
%TO.C,LED62*%
X154746430Y-96853270D03*
X153685770Y-97913930D03*
%TD*%
%TO.C,LED4*%
X147126430Y-70183270D03*
X146065770Y-71243930D03*
%TD*%
%TO.C,LED35*%
X143316430Y-85423270D03*
X142255770Y-86483930D03*
%TD*%
D15*
%TO.C,SW1*%
X144851100Y-148648600D03*
X152151100Y-148648600D03*
X152151100Y-146448600D03*
X144851100Y-146448600D03*
D16*
X146258300Y-145839000D03*
X149242800Y-145839000D03*
X150741400Y-145839000D03*
%TD*%
D10*
%TO.C,LED39*%
X158556430Y-85423270D03*
X157495770Y-86483930D03*
%TD*%
%TO.C,LED59*%
X143316430Y-96853270D03*
X142255770Y-97913930D03*
%TD*%
D17*
%TO.C,R9*%
X158627141Y-63762559D03*
X157425059Y-64964641D03*
%TD*%
D10*
%TO.C,LED53*%
X150936430Y-93043270D03*
X149875770Y-94103930D03*
%TD*%
%TO.C,LED12*%
X147126430Y-73993270D03*
X146065770Y-75053930D03*
%TD*%
D18*
%TO.C,SW2*%
X157460000Y-108510000D03*
X163460000Y-108510000D03*
%TD*%
D13*
%TO.C,REF\u002A\u002A*%
X162250000Y-121330000D03*
D14*
X164790000Y-121330000D03*
%TD*%
D10*
%TO.C,LED2*%
X139506430Y-70183270D03*
X138445770Y-71243930D03*
%TD*%
%TO.C,LED25*%
X135696430Y-81613270D03*
X134635770Y-82673930D03*
%TD*%
%TO.C,LED60*%
X147126430Y-96853270D03*
X146065770Y-97913930D03*
%TD*%
%TO.C,LED57*%
X135696430Y-96853270D03*
X134635770Y-97913930D03*
%TD*%
D17*
%TO.C,R3*%
X135767141Y-63762559D03*
X134565059Y-64964641D03*
%TD*%
D10*
%TO.C,LED56*%
X162366430Y-93043270D03*
X161305770Y-94103930D03*
%TD*%
%TO.C,LED28*%
X147126430Y-81613270D03*
X146065770Y-82673930D03*
%TD*%
%TO.C,LED6*%
X154746430Y-70183270D03*
X153685770Y-71243930D03*
%TD*%
%TO.C,LED30*%
X154746430Y-81613270D03*
X153685770Y-82673930D03*
%TD*%
%TO.C,LED9*%
X135696430Y-73993270D03*
X134635770Y-75053930D03*
%TD*%
%TO.C,LED19*%
X143316430Y-77803270D03*
X142255770Y-78863930D03*
%TD*%
%TO.C,LED23*%
X158556430Y-77803270D03*
X157495770Y-78863930D03*
%TD*%
D17*
%TO.C,R10*%
X162437141Y-63762559D03*
X161235059Y-64964641D03*
%TD*%
D10*
%TO.C,LED31*%
X158556430Y-81613270D03*
X157495770Y-82673930D03*
%TD*%
%TO.C,LED52*%
X147126430Y-93043270D03*
X146065770Y-94103930D03*
%TD*%
%TO.C,LED47*%
X158556430Y-89233270D03*
X157495770Y-90293930D03*
%TD*%
D19*
%TO.C,PROG0*%
X168496000Y-143500000D03*
X168496000Y-144750000D03*
X168496000Y-146000000D03*
X168496000Y-147250000D03*
%TD*%
D17*
%TO.C,R7*%
X151007141Y-63762559D03*
X149805059Y-64964641D03*
%TD*%
D10*
%TO.C,LED7*%
X158556430Y-70183270D03*
X157495770Y-71243930D03*
%TD*%
%TO.C,LED51*%
X143316430Y-93043270D03*
X142255770Y-94103930D03*
%TD*%
%TO.C,LED41*%
X135696430Y-89233270D03*
X134635770Y-90293930D03*
%TD*%
D20*
%TO.C,R1*%
X163399100Y-145135600D03*
X165099100Y-145135600D03*
%TD*%
D17*
%TO.C,R5*%
X143387141Y-63762559D03*
X142185059Y-64964641D03*
%TD*%
D21*
%TO.C,RX0*%
X162471100Y-126593600D03*
%TD*%
D10*
%TO.C,LED61*%
X150936430Y-96853270D03*
X149875770Y-97913930D03*
%TD*%
D22*
%TO.C,MP1*%
X160991100Y-139661900D03*
X161491100Y-139661900D03*
X161991100Y-139661900D03*
X162491100Y-139661900D03*
X162991100Y-139661900D03*
X163491100Y-139661900D03*
X163991100Y-139661900D03*
X164491100Y-139661900D03*
X164991100Y-139661900D03*
X165491100Y-139661900D03*
X165991100Y-139661900D03*
X166491100Y-139661900D03*
D23*
X167919400Y-138233600D03*
X167919400Y-137733600D03*
X167919400Y-137233600D03*
X167919400Y-136733600D03*
X167919400Y-136233600D03*
X167919400Y-135733600D03*
X167919400Y-135233600D03*
X167919400Y-134733600D03*
X167919400Y-134233600D03*
X167919400Y-133733600D03*
X167919400Y-133233600D03*
X167919400Y-132733600D03*
D22*
X166491100Y-131305300D03*
X165991100Y-131305300D03*
X165491100Y-131305300D03*
X164991100Y-131305300D03*
X164491100Y-131305300D03*
X163991100Y-131305300D03*
X163491100Y-131305300D03*
X162991100Y-131305300D03*
X162491100Y-131305300D03*
X161991100Y-131305300D03*
X161491100Y-131305300D03*
X160991100Y-131305300D03*
D23*
X159562800Y-132733600D03*
X159562800Y-133233600D03*
X159562800Y-133733600D03*
X159562800Y-134233600D03*
X159562800Y-134733600D03*
X159562800Y-135233600D03*
X159562800Y-135733600D03*
X159562800Y-136233600D03*
X159562800Y-136733600D03*
X159562800Y-137233600D03*
X159562800Y-137733600D03*
X159562800Y-138233600D03*
%TD*%
D10*
%TO.C,LED13*%
X150936430Y-73993270D03*
X149875770Y-75053930D03*
%TD*%
%TO.C,LED16*%
X162366430Y-73993270D03*
X161305770Y-75053930D03*
%TD*%
%TO.C,LED44*%
X147126430Y-89233270D03*
X146065770Y-90293930D03*
%TD*%
%TO.C,LED11*%
X143316430Y-73993270D03*
X142255770Y-75053930D03*
%TD*%
%TO.C,LED49*%
X135696430Y-93043270D03*
X134635770Y-94103930D03*
%TD*%
%TO.C,LED58*%
X139506430Y-96853270D03*
X138445770Y-97913930D03*
%TD*%
%TO.C,LED55*%
X158556430Y-93043270D03*
X157495770Y-94103930D03*
%TD*%
%TO.C,LED10*%
X139506430Y-73993270D03*
X138445770Y-75053930D03*
%TD*%
%TO.C,LED50*%
X139506430Y-93043270D03*
X138445770Y-94103930D03*
%TD*%
%TO.C,LED1*%
X135696430Y-70183270D03*
X134635770Y-71243930D03*
%TD*%
%TO.C,LED15*%
X158556430Y-73993270D03*
X157495770Y-75053930D03*
%TD*%
%TO.C,LED14*%
X154746430Y-73993270D03*
X153685770Y-75053930D03*
%TD*%
%TO.C,LED54*%
X154746430Y-93043270D03*
X153685770Y-94103930D03*
%TD*%
%TO.C,LED40*%
X162366430Y-85423270D03*
X161305770Y-86483930D03*
%TD*%
D17*
%TO.C,R8*%
X154817141Y-63762559D03*
X153615059Y-64964641D03*
%TD*%
D10*
%TO.C,LED46*%
X154746430Y-89233270D03*
X153685770Y-90293930D03*
%TD*%
%TO.C,LED38*%
X154746430Y-85423270D03*
X153685770Y-86483930D03*
%TD*%
%TO.C,LED32*%
X162366430Y-81613270D03*
X161305770Y-82673930D03*
%TD*%
D17*
%TO.C,R6*%
X147197141Y-63762559D03*
X145995059Y-64964641D03*
%TD*%
D10*
%TO.C,LED45*%
X150936430Y-89233270D03*
X149875770Y-90293930D03*
%TD*%
%TO.C,LED36*%
X147126430Y-85423270D03*
X146065770Y-86483930D03*
%TD*%
%TO.C,LED33*%
X135696430Y-85423270D03*
X134635770Y-86483930D03*
%TD*%
%TO.C,LED42*%
X139506430Y-89233270D03*
X138445770Y-90293930D03*
%TD*%
D24*
%TO.C,BT1*%
X146100000Y-126310000D03*
X131957864Y-140452136D03*
%TD*%
D21*
%TO.C,TX0*%
X165011100Y-126593600D03*
%TD*%
D10*
%TO.C,LED3*%
X143316430Y-70183270D03*
X142255770Y-71243930D03*
%TD*%
D17*
%TO.C,R4*%
X139577141Y-63762559D03*
X138375059Y-64964641D03*
%TD*%
M02*
